<?xml version="1.0" standalone="no"?>
<!DOCTYPE svg PUBLIC "-//W3C//DTD SVG 20010904//EN"
 "http://www.w3.org/TR/2001/REC-SVG-20010904/DTD/svg10.dtd">
<svg version="1.0" xmlns="http://www.w3.org/2000/svg"
 width="360.000000pt" height="360.000000pt" viewBox="0 0 360.000000 360.000000"
 preserveAspectRatio="xMidYMid meet">
<metadata>
Created by potrace 1.13, written by Peter Selinger 2001-2015
</metadata>
<g transform="translate(0.000000,360.000000) scale(0.100000,-0.100000)"
fill="#000000" stroke="none">
<path d="M2055 3419 c-293 -44 -445 -93 -640 -209 -228 -134 -427 -360 -490
-555 -9 -27 -20 -59 -24 -70 -31 -73 -42 -308 -19 -402 74 -309 276 -577 571
-762 38 -23 74 -40 80 -37 7 2 5 5 -5 5 -9 1 -18 5 -20 9 -1 5 -30 29 -63 54
-117 89 -206 186 -257 279 -66 119 -79 154 -98 274 -43 273 162 586 481 733
199 92 341 122 581 122 99 0 198 -4 221 -9 23 -5 79 -17 124 -26 120 -24 304
-98 424 -170 139 -83 172 -96 246 -97 63 0 156 24 184 48 8 8 19 14 24 14 9 0
44 37 74 79 51 71 62 182 25 253 -24 47 -89 105 -192 172 -261 172 -487 253
-808 291 -139 16 -323 18 -419 4z"/>
<path d="M1823 2200 c-98 -21 -202 -102 -250 -197 -25 -51 -28 -66 -28 -157 0
-91 3 -107 29 -161 37 -75 94 -131 171 -170 54 -26 69 -29 155 -28 87 0 100 3
157 33 100 52 157 120 192 229 14 45 14 143 -1 195 -15 51 -72 144 -107 173
-80 68 -219 104 -318 83z"/>
<path d="M2443 2089 c3 -9 28 -47 55 -85 46 -63 93 -148 121 -216 6 -16 15
-38 20 -50 5 -13 15 -48 21 -78 7 -30 16 -71 21 -91 28 -110 -14 -314 -87
-431 -37 -59 -137 -156 -208 -202 -81 -54 -210 -102 -333 -126 -419 -81 -934
104 -1257 449 -28 30 -58 62 -66 71 -9 9 -25 31 -37 50 -70 113 -216 176 -347
150 -74 -14 -107 -31 -158 -78 -87 -81 -102 -205 -38 -319 27 -47 108 -161
130 -183 3 -3 32 -36 65 -74 126 -146 315 -290 517 -394 186 -96 352 -151 582
-192 92 -16 381 -13 488 6 286 49 559 203 708 402 54 72 126 209 142 269 35
138 46 292 28 397 -20 122 -46 222 -62 240 -4 6 -8 16 -8 23 0 41 -135 283
-207 370 -60 73 -95 109 -90 92z"/>
<path d="M1588 1343 c7 -3 16 -2 19 1 4 3 -2 6 -13 5 -11 0 -14 -3 -6 -6z"/>
</g>
</svg>
